<svg version="1.1" id="Layer_1" xmlns="http://www.w3.org/2000/svg" xmlns:xlink="http://www.w3.org/1999/xlink" x="0px"
  y="0px" viewBox="0 0 179 53.9" style="enable-background:new 0 0 179 53.9;" xml:space="preserve" width="179">
  <style type="text/css">
    .logo-bhinneka0 {
      fill-rule: evenodd;
      clip-rule: evenodd;
      transition: 500ms ease;
    }

    .logo-bhinneka1 {
      fill-rule: evenodd;
      clip-rule: evenodd;
      fill: #626365;
      transition: 500ms ease;
    }

    .logo-bhinneka2 {
      fill-rule: evenodd;
      clip-rule: evenodd;
      fill: #ED1C24;
      transition: 500ms ease;
    }

    .navbar-default.scrolled .logo-bhinneka0,
    .navbar-default.scrolled .logo-bhinneka1,
    .navbar-default.scrolled .logo-bhinneka2 {
      fill: #fff;
      transition: 500ms ease;
    }
  </style>
  <path id="XMLID_28_" class="logo-bhinneka0" d="M158.3,35.6l-15.6-22.9l9.4,1.6c2,0.3,2.1,1.9,2.1,2.7c0,0.2-0.1,0.3-0.1,0.5c0,0,0,0,0,0l0,0
       c-0.9,5.9,4.1,3.6,8.6,6.1C166.6,25.8,166.4,29.4,158.3,35.6 M123.9,20.9l13-9.3l-11.5-2.2l3,3.9L123.9,20.9z M140,12.1l-16.5,11.3
       l-0.7,4.5l19.1-13.1L140,12.1z"></path>
  <path id="XMLID_27_" class="logo-bhinneka1" d="M169.2,17.2c-1.7,0.5-1.9,1.5-2.1,2.2c-0.3,1.9-2.3,2-3.8,1.9c-2.7-1.4-5.2-0.9-6.3-1.8
       c-1.2-0.9-0.9-2.9-0.4-4.7C161.7,15.7,165.3,15.3,169.2,17.2 M173,24.5l3.2-1.8c-1.5-2-3.2-3.4-4.8-4.3c-2.1,0.6-1.6,1.3-1.8,1.7
       C171.4,21.1,172.7,22.5,173,24.5 M166.5,29.2l4.7-3.1c-0.2-2.2-1.3-3.6-3-4.3c-0.9,1.3-1.8,1-2.8,0.9
       C167.1,23.9,168,25.9,166.5,29.2 M13.3,34.4c-0.3-0.8-0.8-1.5-1.7-2c-0.8-0.5-1.8-0.7-3-0.7c-1.5,0-2.7,0.4-3.4,1.1
       c-0.7,0.7-1.1,1.6-1.1,2.6c0,0.6,0.1,1.1,0.4,1.5c0.3,0.4,0.6,0.8,1,1C6,38,6.7,38.3,7.7,38.7c0.7,0.3,1.2,0.4,1.3,0.5
       c0.1,0,0.2,0.1,0.3,0.2c0.1,0.1,0.1,0.2,0.1,0.4c0,0.2-0.1,0.4-0.3,0.6c-0.2,0.2-0.5,0.2-1,0.2c-1.1,0-1.8-0.4-2-1.2L2.8,40
       c0.4,1,1,1.8,1.9,2.3c0.9,0.5,2,0.8,3.3,0.8c1.5,0,2.6-0.4,3.5-1.1c0.9-0.7,1.3-1.6,1.3-2.8c0-0.4-0.1-0.8-0.3-1.2
       c-0.2-0.4-0.5-0.7-0.8-1c-0.4-0.3-0.8-0.6-1.3-0.7l-1.8-0.6c-0.5-0.2-0.8-0.3-0.9-0.4c-0.1-0.1-0.2-0.2-0.2-0.4
       c0-0.5,0.4-0.7,1.1-0.7c0.4,0,0.7,0.1,1.1,0.3c0.3,0.2,0.5,0.4,0.6,0.8L13.3,34.4 M16.3,40.6l-1,2.3h-2.7l5.1-11.1h3.5l1.7,11.1
       h-3.3l-0.3-2.3H16.3z M18.7,35.1l-1.4,3.2h1.9L18.7,35.1z M32.4,31.8L31.7,36c-0.1,0.9-0.2,1.5-0.2,1.8c0,0.1,0,0.3,0,0.5
       c-0.3-0.8-0.8-2.2-1.6-3.9l-1.2-2.6h-3l-1.8,11.1h2.7l0.9-5.4c0.1-0.5,0.1-0.9,0.1-1.2c0-0.1,0-0.2,0-0.4c0.2,0.7,0.5,1.6,1.1,2.8
       l2.1,4.2h2.5l1.8-11.1H32.4z M40.4,39.2h1.8c-0.3,0.9-0.9,1.4-1.7,1.4c-1,0-1.5-0.6-1.5-1.9c0-1,0.2-1.9,0.5-2.9
       c0.3-1,0.9-1.5,1.7-1.5c0.9,0,1.5,0.5,1.7,1.5l3-0.5c-0.6-2.4-2.2-3.6-4.7-3.6c-1.8,0-3.2,0.7-4.2,2c-1.1,1.3-1.6,2.9-1.6,4.8
       c0,0.9,0.2,1.7,0.5,2.4c0.3,0.7,0.8,1.2,1.5,1.7c0.6,0.4,1.5,0.6,2.5,0.6c1.4,0,2.4-0.5,3-1.4l0.1,1.2h1.6l1-6.1h-4.9L40.4,39.2z
        M57.7,31.8h-3.1L53,33.6c-0.8,1-1.4,1.6-1.7,2.1c-0.4,0.4-0.6,0.8-0.8,1.3l0.8-5.1h-3.1l-1.8,11.1h3.1l0.4-2.7l1.7-1.9l1.2,4.5h3.3
       L54,36L57.7,31.8z M66.7,38.6c-0.2,1.2-0.5,2-0.8,2.6c-0.3,0.6-0.8,1-1.6,1.3c-0.7,0.3-1.6,0.5-2.6,0.5c-1.3,0-2.3-0.3-3.1-0.8
       c-0.7-0.6-1.1-1.4-1.1-2.4c0-0.4,0-0.8,0.1-1.2l1.1-6.8h3.4L61,38.6C61,39,61,39.3,61,39.5c0,0.3,0.1,0.6,0.4,0.8
       c0.3,0.2,0.6,0.3,1,0.3c0.5,0,0.8-0.1,1.1-0.4c0.2-0.2,0.4-0.7,0.5-1.4l1.2-6.9h2.6L66.7,38.6z M75.9,38.3c1.5-0.6,2.3-1.6,2.3-3.2
       c0-1-0.3-1.8-0.9-2.3c-0.6-0.6-1.6-0.9-2.9-0.9h-4.8l-1.8,11.1h3.1l0.7-4.2h1.3l1,4.2h3.3L75.9,38.3 M72.3,34.1h1.2
       c1,0,1.5,0.3,1.5,1c0,0.8-0.6,1.2-1.8,1.2H72L72.3,34.1z M80.6,31.8l-1.8,11.1h3.1l1.8-11.1H80.6z M86.7,40.6l-1,2.3H83l5.1-11.1
       h3.5l1.7,11.1H90l-0.3-2.3H86.7z M89.1,35.1l-1.4,3.2h1.9L89.1,35.1z M102.8,31.8l-0.7,4.2c-0.1,0.9-0.2,1.5-0.2,1.8
       c0,0.1,0,0.3,0,0.5c-0.3-0.8-0.8-2.2-1.6-3.9l-1.2-2.6h-3l-1.8,11.1h2.7l0.9-5.4c0.1-0.5,0.1-0.9,0.1-1.2c0-0.1,0-0.2,0-0.4
       c0.2,0.7,0.5,1.6,1.1,2.8l2.1,4.2h2.5l1.8-11.1H102.8z M110.8,39.2h1.8c-0.3,0.9-0.9,1.4-1.7,1.4c-1,0-1.5-0.6-1.5-1.9
       c0-1,0.2-1.9,0.5-2.9c0.4-1,0.9-1.5,1.7-1.5c0.9,0,1.5,0.5,1.7,1.5l3-0.5c-0.6-2.4-2.2-3.6-4.7-3.6c-1.8,0-3.2,0.7-4.2,2
       c-1.1,1.3-1.6,2.9-1.6,4.8c0,0.9,0.2,1.7,0.5,2.4c0.3,0.7,0.8,1.2,1.5,1.7c0.6,0.4,1.5,0.6,2.5,0.6c1.4,0,2.4-0.5,3-1.4l0.1,1.2h1.6
       l1-6.1h-4.9L110.8,39.2z"></path>
  <path id="XMLID_29_" class="logo-bhinneka2" d="M145.6,20.3l-24.4,16.6l0.7-4.5l21.8-14.9L145.6,20.3z M147.5,23l-27,18.4l-0.2,1.4h4.1l25-17.1
       L147.5,23z M151.2,28.5l-21,14.3h5.8l17-11.6L151.2,28.5z M155,34L142,42.9h5.8l8.9-6.1L155,34z M12.9,28.6c1.9,0,3.2-0.5,4-1.4
       c0.8-0.9,1.2-1.9,1.2-3.1c0-1.6-0.8-2.8-2.5-3.3c1-0.2,1.8-0.7,2.4-1.3c0.6-0.7,0.9-1.5,0.9-2.4c0-0.9-0.2-1.6-0.7-2.3
       c-0.5-0.6-1.1-1.1-1.9-1.3c-0.7-0.2-1.7-0.3-2.8-0.3h-0.5l-6.7,5.2L4.5,28.6H12.9z M11,16.5h1.8c1.1,0,1.7,0.4,1.7,1.2
       c0,0.9-0.7,1.4-2.1,1.4h-1.8L11,16.5z M10,22.3h1.9c0.6,0,1,0.1,1.3,0.4c0.3,0.3,0.5,0.6,0.5,1.1c0,0.4-0.1,0.7-0.4,1
       c-0.3,0.3-0.8,0.5-1.5,0.5H9.5L10,22.3z M27.8,28.6h4.5l2.6-15.4h-4.5l-0.9,5.7h-4l0.9-5.7H22l-2.6,15.4h4.5l1-6.2h4L27.8,28.6z
        M37.6,13.2L35,28.6h4.4l2.6-15.4H37.6z M54,13.2l-1,5.8c-0.2,1.2-0.3,2.1-0.3,2.5c0,0.1,0,0.4,0,0.7c-0.4-1.2-1.1-3-2.3-5.5
       l-1.7-3.6h-4.1L42,28.6h3.7l1.3-7.5c0.1-0.7,0.2-1.3,0.2-1.7c0-0.1,0-0.3,0-0.5c0.2,0.9,0.7,2.2,1.5,3.8l2.9,5.9h3.4l2.6-15.4H54z
        M69.7,13.2l-1,5.8c-0.2,1.2-0.3,2.1-0.3,2.5c0,0.1,0,0.4,0,0.7c-0.3-1.2-1.1-3-2.3-5.5l-1.7-3.6h-4.1l-2.6,15.4h3.7l1.3-7.5
       c0.1-0.7,0.2-1.3,0.2-1.7c0-0.1,0-0.3,0-0.5c0.2,0.9,0.7,2.2,1.5,3.8l2.9,5.9h3.4l2.6-15.4H69.7z M78.5,25.1l0.5-2.7h5.5l0.6-3.3
       h-5.5l0.4-2.4h6.6l0.6-3.4H76l-2.6,15.4h11.3l0.6-3.5H78.5z M100.2,28.6h-4.5L94,22.3l-2.3,2.6L91,28.6h-4.3l2.6-15.4h4.3l-1.2,7.1
       c0.2-0.6,0.6-1.2,1.1-1.7c0.5-0.6,1.3-1.5,2.4-2.9l2.2-2.5h4.4L97.3,19L100.2,28.6z M110.1,28.6h4.5l-2.4-15.4h-4.9l-7.1,15.4h3.8
       l1.4-3.1h4.2L110.1,28.6z M106.8,22.3l2-4.5l0.6,4.5H106.8z M6.4,17l5.2-3.7L7,12.4L8.2,14L6.4,17z"></path>
</svg>